<?xml version="1.0" standalone="no"?>
<!DOCTYPE svg PUBLIC "-//W3C//DTD SVG 1.1//EN" "http://www.w3.org/Graphics/SVG/1.1/DTD/svg11.dtd" >
<svg xmlns="http://www.w3.org/2000/svg">
<metadata></metadata>
<defs>
<font id="mopsterregular" horiz-adv-x="1259" >
<font-face units-per-em="2048" ascent="1638" descent="-410" />
<missing-glyph horiz-adv-x="614" />
<glyph horiz-adv-x="0" />
<glyph horiz-adv-x="682" />
<glyph unicode=" "  horiz-adv-x="614" />
<glyph unicode="&#x09;" horiz-adv-x="614" />
<glyph unicode="&#xa0;" horiz-adv-x="614" />
<glyph unicode="!" horiz-adv-x="817" d="M102 267q0 -127 89.5 -216.5t216.5 -89.5t216.5 89.5t89.5 216.5t-89.5 216t-216.5 89t-216.5 -89t-89.5 -216zM142 1389q-1 18 12.5 31.5t31.5 13.5h444q18 0 31.5 -13.5t12.5 -31.5l-66 -638q-2 -19 -14 -32t-30 -13h-312q-18 0 -30 13t-14 32z" />
<glyph unicode="&#x22;" horiz-adv-x="1187" d="M102 1077v513q0 19 14 33t34 14h351q32 0 50.5 -25t6.5 -70l-122 -465q-13 -47 -47 -47h-240q-20 0 -33.5 13.5t-13.5 33.5zM656 1077v513q0 20 14 33.5t33 13.5h352q32 0 50.5 -25t6.5 -70l-123 -465q-13 -47 -46 -47h-241q-20 0 -33 13.5t-13 33.5z" />
<glyph unicode="%" horiz-adv-x="1478" d="M51 1111q0 106 75 181t181 75t181 -75t75 -181t-75 -180.5t-181 -74.5t-181 74.5t-75 180.5zM191 1111q0 -48 34 -81.5t82 -33.5t82 33.5t34 81.5t-34 82.5t-82 34.5t-82 -34.5t-34 -82.5zM426 -55l429 1601q5 20 23.5 30.5t38.5 5.5l96 -24q20 -5 30.5 -23.5t5.5 -38.5 l-428 -1600q-5 -20 -24 -30.5t-39 -4.5l-96 22q-20 6 -30.5 24t-5.5 38zM916 319q0 106 75 181t181 75t181 -75t75 -181t-75 -180.5t-181 -74.5t-181 74.5t-75 180.5zM1056 320q0 -48 34 -82t82 -34t82 34t34 82t-34 82t-82 34t-82 -34t-34 -82z" />
<glyph unicode="&#x26;" horiz-adv-x="1228" d="M26 466q0 107 45 200.5t124 158.5l233 -272q-44 -33 -44 -87q0 -45 31.5 -77t76.5 -32q43 0 76 31l232 -271q-131 -117 -308 -117q-126 0 -233.5 62.5t-170 170t-62.5 233.5zM197 1060q0 155 109.5 264.5t263.5 109.5t264 -110t110 -264q0 -88 -38 -164.5t-105 -128.5 l461 -540q8 -10 7 -23.5t-11 -21.5l-233 -192q-10 -9 -23.5 -8t-21.5 12l-682 797q-101 126 -101 269zM489 1057q0 -33 23 -56t56 -23t56 23t23 56t-23 56t-56 23t-56 -23t-23 -56z" />
<glyph unicode="'" horiz-adv-x="634" d="M102 1077v513q0 19 14 33t34 14h351q32 0 50.5 -25t6.5 -70l-122 -465q-13 -47 -47 -47h-240q-20 0 -33.5 13.5t-13.5 33.5z" />
<glyph unicode="(" horiz-adv-x="741" d="M102 56v1322q0 23 16.5 39t39.5 16h425q23 0 39.5 -16t16.5 -39v-186q0 -23 -16.5 -39.5t-39.5 -16.5h-136q-22 0 -34.5 -11t-12.5 -28v-760q0 -40 47 -40h136q23 0 39.5 -16t16.5 -39v-186q0 -23 -16.5 -39.5t-39.5 -16.5h-425q-23 0 -39.5 16.5t-16.5 39.5z" />
<glyph unicode=")" horiz-adv-x="741" d="M102 56v186q0 23 16.5 39t39.5 16h137q46 0 46 40v760q0 17 -12 28t-34 11h-137q-23 0 -39.5 16.5t-16.5 39.5v186q0 23 16.5 39t39.5 16h425q23 0 39.5 -16t16.5 -39v-1322q0 -23 -16.5 -39.5t-39.5 -16.5h-425q-23 0 -39.5 16.5t-16.5 39.5z" />
<glyph unicode="+" horiz-adv-x="1357" d="M205 717v95q0 21 15 36t36 15h324v324q0 21 15 36t36 15h95q21 0 36.5 -15t15.5 -36v-324h324q21 0 36 -15t15 -36v-95q0 -21 -15 -36.5t-36 -15.5h-324v-323q0 -21 -15.5 -36.5t-36.5 -15.5h-95q-21 0 -36 15.5t-15 36.5v323h-324q-21 0 -36 15.5t-15 36.5z" />
<glyph unicode="," horiz-adv-x="634" d="M102 -209v514q0 19 14 32.5t34 13.5h351q32 0 50.5 -25t6.5 -70l-122 -465q-13 -47 -47 -47h-240q-20 0 -33.5 13.5t-13.5 33.5z" />
<glyph unicode="-" horiz-adv-x="944" d="M102 558v215q0 21 15 36t36 15h637q21 0 36 -15t15 -36v-215q0 -21 -15 -36t-36 -15h-637q-21 0 -36 15t-15 36z" />
<glyph unicode="." horiz-adv-x="817" d="M102 267q0 -127 89.5 -216.5t216.5 -89.5t216.5 89.5t89.5 216.5t-89.5 216t-216.5 89t-216.5 -89t-89.5 -216z" />
<glyph unicode="/" horiz-adv-x="786" d="M53 -55l429 1601q5 20 23.5 30t38.5 5l154 -41q20 -5 30 -23.5t5 -38.5l-428 -1601q-5 -20 -24 -30.5t-39 -4.5l-153 41q-20 4 -30.5 23t-5.5 39z" />
<glyph unicode="0" horiz-adv-x="1617" d="M54 656q-16 205 71 387t252.5 297t370.5 131q154 12 298.5 -36.5t254 -141.5t180.5 -227.5t83 -288.5t-36.5 -298.5t-141.5 -254t-228 -180.5t-289 -83t-298.5 36.5t-253.5 141.5t-180 228t-83 289zM464.5 499q1.5 -20 17.5 -34l130 -112q16 -13 36.5 -11.5t34.5 17.5 l458 538q14 16 12.5 37t-17.5 34l-131 111q-16 13 -36 11.5t-34 -17.5l-459 -538q-13 -16 -11.5 -36z" />
<glyph unicode="1" horiz-adv-x="917" d="M102 1022v361q0 21 15 36t36 15h611q21 0 36 -15t15 -36v-1331q0 -21 -15.5 -36t-36.5 -15h-454q-21 0 -35.5 15t-14.5 36v868q0 21 -15 36t-36 15h-55q-21 0 -36 15t-15 36z" />
<glyph unicode="2" horiz-adv-x="1118" d="M54.5 13q-8.5 13 1.5 32l461 881q10 19 2 32t-29 13h-286q-21 0 -35.5 15t-14.5 36v361q0 21 14.5 36t35.5 15h762q21 0 35.5 -15t14.5 -36v-349q0 -35 -5 -51.5t-36 -79.5l-168 -321q-10 -19 -1.5 -32t29.5 -13h127q22 0 38 -16t16 -39v-427q0 -23 -16 -39t-38 -16h-878 q-21 0 -29.5 13z" />
<glyph unicode="3" horiz-adv-x="1110" d="M102 56v431q0 23 16.5 39.5t39.5 16.5h259q47 0 47 39v269q0 17 -12.5 28t-34.5 11h-259q-23 0 -39.5 16.5t-16.5 39.5v432q0 23 16.5 39t39.5 16h794q23 0 39 -16t16 -39v-476q0 -23 -12 -50t-29 -42l-64 -57q-17 -15 -17 -36.5t17 -36.5l64 -56q17 -15 29 -42.5 t12 -50.5v-475q0 -23 -16 -39.5t-39 -16.5h-794q-23 0 -39.5 16.5t-16.5 39.5z" />
<glyph unicode="4" horiz-adv-x="1107" d="M53 582q-7 -28 7 -46.5t40 -18.5h152q21 0 36 -15t15 -36v-415q0 -21 15 -36t36 -15h600q21 0 36 15t15 36v655q0 21 -15 36t-36 15h-116q-21 0 -36 14.5t-15 35.5l176 565q7 23 -5.5 42t-41.5 19h-545q-53 0 -71 -50z" />
<glyph unicode="5" horiz-adv-x="1089" d="M102.5 182.5q0.5 13.5 11.5 22.5l241 192q11 10 26.5 9t23.5 -15q4 -6 12 -15.5t34.5 -25.5t56.5 -16q56 0 95.5 39.5t39.5 95.5t-39.5 95.5t-95.5 39.5q-19 0 -36.5 -6t-28.5 -14t-20 -16.5t-13 -14.5l-4 -6q-7 -12 -16 -15t-36 -3h-135q-16 0 -27 11.5t-11 27.5v827 q0 16 11 27.5t27 11.5h685q16 0 27.5 -11.5t11.5 -27.5v-300q0 -16 -11.5 -27.5t-27.5 -11.5h-396v-78q161 0 278.5 -69.5t174 -183t56.5 -256.5q0 -138 -68 -255.5t-185.5 -186t-255.5 -68.5q-79 0 -148.5 20.5t-112.5 50t-75 59t-46 49.5l-13 21q-11 10 -10.5 23.5z" />
<glyph unicode="6" horiz-adv-x="1216" d="M51 506q0 109 35 203.5t113 191.5l476 557q12 15 31 16.5t34 -10.5l341 -282q15 -12 16.5 -31t-10.5 -34l-151 -182q97 -77 153 -189t56 -240q0 -111 -43.5 -212.5t-116.5 -174.5t-174.5 -116.5t-212.5 -43.5t-212.5 43.5t-174.5 116.5t-116.5 174.5t-43.5 212.5z M478 511q0 -48 34 -82t82 -34t82 34t34 82t-34 82t-82 34t-82 -34t-34 -82z" />
<glyph unicode="7" horiz-adv-x="1011" d="M54.5 13q8.5 -13 29.5 -13h775q21 0 36 15t15 36v1332q0 21 -15 36t-36 15h-655q-21 0 -35.5 -15t-14.5 -36v-362q0 -21 14.5 -35.5t35.5 -14.5h286q21 0 29 -13t-2 -32l-461 -881q-10 -19 -1.5 -32z" />
<glyph unicode="8" horiz-adv-x="1187" d="M72 482q0 109 42 206t118 170q-52 92 -52 202q0 172 121 293t292 121t292.5 -121t121.5 -293q0 -106 -53 -202q76 -73 118.5 -170t42.5 -206q0 -142 -70 -262t-190 -189.5t-262 -69.5q-106 0 -202.5 41t-166.5 111t-111 166.5t-41 202.5zM481 482q0 -46 32.5 -79 t79.5 -33t80 33t33 79t-33 79.5t-80 33.5q-46 0 -79 -33t-33 -80zM504 1060q0 -37 26 -63t63 -26t63.5 26t26.5 63t-26.5 63t-63.5 26t-63 -26t-26 -63z" />
<glyph unicode="9" horiz-adv-x="1216" d="M72 928q0 226 160 386t386 160q111 0 212.5 -43t174.5 -116t116.5 -174.5t43.5 -212.5q0 -109 -35 -203.5t-113 -191.5l-476 -558q-12 -14 -31 -16t-34 10l-340 283q-15 12 -17 31t10 34l151 182q-97 76 -152.5 188.5t-55.5 240.5zM506 923q0 -48 34 -82t82 -34t82 34 t34 82t-34 82t-82 34t-82 -34t-34 -82z" />
<glyph unicode=":" horiz-adv-x="614" d="M51 216q0 -106 75 -180.5t181 -74.5t181 74.5t75 180.5t-75 181t-181 75t-181 -75t-75 -181zM51 902q0 -106 75 -180.5t181 -74.5t181 74.5t75 180.5t-75 181t-181 75t-181 -75t-75 -181z" />
<glyph unicode=";" horiz-adv-x="686" d="M102 902q0 -106 75 -180.5t181 -74.5t181 74.5t75 180.5t-75 181t-181 75t-181 -75t-75 -181zM133 -209v514q0 19 14 32.5t34 13.5h351q32 0 50.5 -25t6.5 -70l-123 -465q-13 -47 -46 -47h-240q-20 0 -33.5 13.5t-13.5 33.5z" />
<glyph unicode="=" horiz-adv-x="1357" d="M205 555v95q0 21 15 36t36 15h846q21 0 36 -15t15 -36v-95q0 -21 -15 -36.5t-36 -15.5h-846q-21 0 -36 15.5t-15 36.5zM205 878v95q0 21 15 36t36 15h846q21 0 36 -15t15 -36v-95q0 -21 -15 -36.5t-36 -15.5h-846q-21 0 -36 15.5t-15 36.5z" />
<glyph unicode="?" horiz-adv-x="907" d="M60 1299q4 7 12.5 19t39 42.5t67 53.5t98.5 42t131 19q185 0 316.5 -131.5t131.5 -316.5t-131.5 -316.5t-316.5 -131.5q-14 0 -24 10t-10 24v261q0 14 10 24t24 10q50 0 84.5 35t34.5 84t-34.5 84t-84.5 35q-26 0 -49 -13t-33 -25l-9 -13q-7 -12 -21 -13t-23 8l-211 169 q-18 15 -2 40zM190 227q0 -109 77 -185.5t186 -76.5t186 76.5t77 185.5t-77 186.5t-186 77.5t-186 -77.5t-77 -186.5z" />
<glyph unicode="@" horiz-adv-x="1966" d="M212.5 746.5q-19.5 32.5 6.5 78.5l339 603q25 46 62 46t62 -46l339 -603q26 -46 6.5 -78.5t-71.5 -32.5h-672q-52 0 -71.5 32.5zM297 396v141q0 16 11 27t27 11h570q16 0 27 -11t11 -27v-141q0 -16 -11 -27t-27 -11h-570q-16 0 -27 11t-11 27zM1016 1125v271q0 16 11 27 t27 11h669q16 0 27 -11t11 -27v-271q0 -16 -11 -27t-27 -11h-88q-16 0 -27 -11.5t-11 -27.5v-652q0 -16 -11 -27t-27 -11h-341q-16 0 -27 11t-11 27v652q0 16 -11 27.5t-27 11.5h-88q-16 0 -27 11t-11 27z" />
<glyph unicode="A" horiz-adv-x="1200" d="M62 514q-11 18 -11 39q0 29 19 64l448 798q34 61 82.5 61t82.5 -61l447 -798q20 -35 20 -64q0 -21 -11 -39q-25 -42 -94 -43h-889q-68 1 -94 43zM173 50v187q0 21 15 35.5t36 14.5h753q21 0 35.5 -14.5t14.5 -35.5v-187q0 -21 -14.5 -35.5t-35.5 -14.5h-753 q-21 0 -36 14.5t-15 35.5z" />
<glyph unicode="B" d="M102 51v1332q0 21 15 35.5t36 14.5h481q21 0 36 -14.5t15 -35.5v-338q106 0 203 -41t167 -111t111 -167t41 -203q0 -142 -69.5 -262.5t-190 -190.5t-262.5 -70h-51h-481q-21 0 -36 15t-15 36zM521 521q0 -53 38 -91t91 -38t91 38t38 91t-38 91t-91 38t-91 -38t-38 -91z " />
<glyph unicode="C" horiz-adv-x="1464" d="M51 717q0 154 60 294t161.5 241.5t242 161.5t294.5 60q67 0 130 -10t112.5 -27.5t95 -39.5t79.5 -46.5t63 -49.5t48.5 -47t33 -39.5t19.5 -27.5l7 -10q15 -24 15 -38q0 -15 -18 -30l-358 -285q-17 -15 -39 -14t-35 22l-6 9t-19 21t-31 26t-42.5 20.5t-54.5 9.5 q-83 0 -142 -59t-59 -142t59 -142t142 -59q28 0 54 9t43.5 21t30.5 24.5t19 21.5l6 9q12 19 34.5 21t39.5 -12l358 -286q18 -15 18 -30q0 -14 -15 -38q-4 -6 -11 -17t-33 -41.5t-56.5 -58.5t-81.5 -62.5t-107 -59t-135 -41.5t-164 -17q-154 0 -294.5 60t-242 161.5 t-161.5 242t-60 294.5z" />
<glyph unicode="D" d="M51 523q0 142 70 262.5t190.5 190t262.5 69.5v338q0 21 15 35.5t36 14.5h480q21 0 36 -14.5t15 -35.5v-1332q0 -21 -15 -36t-36 -15h-480h-51q-142 0 -262.5 70t-190.5 190.5t-70 262.5zM480 521q0 -53 37.5 -91t90.5 -38t91 38t38 91t-38 91t-91 38t-90.5 -38t-37.5 -91 z" />
<glyph unicode="E" horiz-adv-x="1087" d="M102 51v1332q0 21 15 36t36 15h781q21 0 35.5 -15t14.5 -36v-455q0 -21 -14.5 -35.5t-35.5 -14.5h-225q-21 0 -35.5 -15t-14.5 -36v-220q0 -21 14.5 -36t35.5 -15h225q21 0 35.5 -15t14.5 -36v-454q0 -21 -14.5 -36t-35.5 -15h-781q-21 0 -36 15t-15 36z" />
<glyph unicode="F" horiz-adv-x="980" d="M102 49v1335q0 21 15 36t36 15h674q21 0 36 -15t15 -36v-362q0 -21 -15 -36t-36 -15h-116q-21 0 -36 -15t-15 -36v-78q0 -21 15 -36t36 -15h116q21 0 36 -15t15 -36v-257q0 -21 -15 -36t-36 -15h-116q-21 0 -36 -15t-15 -36v-332q0 -21 -15 -36t-36 -15h-456 q-21 0 -36 15t-15 36z" />
<glyph unicode="G" horiz-adv-x="1429" d="M51 813q0 134 52.5 256.5t141 211t211 141t256.5 52.5q74 0 142.5 -14.5t118.5 -37t93.5 -50t71.5 -55.5t48.5 -50.5t29.5 -36.5l9 -15q12 -18 12 -32q0 -16 -14 -27l-313 -249q-14 -13 -33.5 -12t-30.5 19q-2 3 -5.5 8t-16 18t-27 23t-37.5 18t-48 8q-73 0 -124 -51.5 t-51 -124.5t51 -124t124 -51q39 0 72 19t46.5 35.5t13.5 19.5q9 15 20.5 19t47.5 4h365q20 0 35 -15t15 -35v-675q0 -21 -15 -36t-35 -15h-389q-20 0 -35 15t-15 36v163q-60 -20 -126 -20q-134 0 -256.5 52t-211 140.5t-141 211t-52.5 256.5z" />
<glyph unicode="H" horiz-adv-x="1413" d="M102 51v1333q0 21 15 36t36 15h335q21 0 36 -15t15 -36v-223q0 -21 14.5 -36t35.5 -15h236q21 0 35.5 15t14.5 36v223q0 21 15 36t36 15h335q21 0 36 -15t15 -36v-1333q0 -21 -15 -36t-36 -15h-335q-21 0 -36 15t-15 36v223q0 21 -14.5 36t-35.5 15h-236q-21 0 -35.5 -15 t-14.5 -36v-223q0 -21 -15 -36t-36 -15h-335q-21 0 -36 15t-15 36z" />
<glyph unicode="I" horiz-adv-x="856" d="M102 1147q0 135 95.5 230t230.5 95t230 -95t95 -230t-95 -230.5t-230 -95.5t-230.5 95.5t-95.5 230.5zM144 50v596q0 21 14.5 35.5t35.5 14.5h451q21 0 36 -14.5t15 -35.5v-596q0 -21 -15 -35.5t-36 -14.5h-451q-21 0 -35.5 14.5t-14.5 35.5z" />
<glyph unicode="J" horiz-adv-x="772" d="M0 40q0 17 12.5 29.5t29.5 12.5q69 0 117.5 48.5t48.5 117.5v1144q0 17 12.5 29.5t29.5 12.5h377q17 0 29 -12.5t13 -29.5v-1144q0 -306 -160.5 -466.5t-466.5 -160.5q-18 0 -30 12.5t-12 30.5v376z" />
<glyph unicode="K" horiz-adv-x="1359" d="M102 51v1332q0 21 15 36t36 15h434q21 0 36 -15t15 -36v-340l192 192q16 17 39 17t40 -17l267 -268q16 -17 16 -39.5t-16 -38.5l-241 -241l388 -388q16 -16 16 -38.5t-16 -38.5l-282 -281q-16 -17 -38.5 -17t-38.5 17l-326 325v-176q0 -21 -15 -36t-36 -15h-434 q-21 0 -36 15t-15 36z" />
<glyph unicode="L" horiz-adv-x="927" d="M102 51q0 -21 15 -36t36 -15h673q21 0 35.5 15t14.5 36v361q0 21 -14.5 36t-35.5 15h-117q-21 0 -35.5 15t-14.5 36v869q0 21 -15 36t-36 15h-455q-21 0 -36 -15t-15 -36v-1332z" />
<glyph unicode="M" horiz-adv-x="1554" d="M102 52v1331q0 21 15 36t36 15h394q47 0 84 -39l92 -99q25 -27 54 -27t55 27l92 99q37 39 84 39h394q21 0 36 -15t15 -36v-1331q0 -21 -15 -36t-36 -15h-395q-21 0 -35.5 15t-14.5 36v339q0 24 -13.5 40t-43.5 16h-245q-30 0 -43.5 -16t-13.5 -40v-339q0 -21 -14.5 -36 t-35.5 -15h-395q-21 0 -36 15t-15 36z" />
<glyph unicode="N" horiz-adv-x="1277" d="M102 52v1331q0 21 15 36t36 15h314q54 0 85 -38l152 -185q14 -17 34.5 -12.5t20.5 25.5v159q0 21 15 36t36 15h314q21 0 36 -15t15 -36v-1331q0 -21 -15 -36t-36 -15h-313q-54 0 -85 38l-153 185q-13 17 -34 12.5t-21 -25.5v-159q0 -21 -15 -36t-36 -15h-314 q-21 0 -36 15t-15 36z" />
<glyph unicode="O" horiz-adv-x="1206" d="M51 923q0 150 74 277t201 201t277 74t277 -74t201 -201t74 -277t-74 -277t-201 -201t-277 -74t-277 74t-201 201t-74 277zM187 53v177q0 21 15.5 36t36.5 15h729q21 0 36 -15t15 -36v-177q0 -21 -15 -36.5t-36 -15.5h-729q-21 0 -36.5 15.5t-15.5 36.5zM474 923 q0 -53 38 -91t91 -38t91 38t38 91t-38 90.5t-91 37.5t-91 -37.5t-38 -90.5z" />
<glyph unicode="P" d="M102 51v1332q0 21 15 35.5t36 14.5h481h51q106 0 203 -41t167 -111t111 -167t41 -203q0 -142 -69.5 -262.5t-190 -190.5t-262.5 -70v-337q0 -21 -15 -36t-36 -15h-481q-21 0 -36 15t-15 36zM521 913q0 -53 38 -91t91 -38t91 38t38 91t-38 91t-91 38t-91 -38t-38 -91z" />
<glyph unicode="Q" horiz-adv-x="1552" d="M51 717q0 146 57 278.5t153 228.5t228.5 153t278.5 57t278.5 -57t228.5 -153t153 -228.5t57 -278.5q0 -165 -72 -312l-386 385q-24 86 -96 141.5t-163 55.5q-112 0 -191 -79t-79 -191q0 -93 57.5 -165.5t145.5 -95.5l382 -382q-150 -74 -315 -74q-146 0 -278.5 57 t-228.5 153t-153 228.5t-57 278.5zM717 572q0 -26 19 -45l513 -513q20 -20 44 -20h1q25 1 45 20l134 133q19 19 19 45t-19 45l-513 513q-20 19 -45 19t-45 -19l-134 -133q-19 -19 -19 -45z" />
<glyph unicode="R" horiz-adv-x="1304" d="M102 52v1331q0 21 15 36t36 15h531q142 0 262 -70t190 -190.5t70 -262.5q0 -128 -58.5 -239t-158.5 -184l249 -248q15 -15 15 -36t-15 -36l-245 -246q-15 -14 -36 -14t-36 14l-296 298v-168q0 -21 -15 -36t-36 -15h-421q-21 0 -36 15t-15 36zM513 911q0 -52 37 -89 t90 -37t90 37t37 89q0 53 -37.5 90t-89.5 37t-89.5 -37t-37.5 -90z" />
<glyph unicode="S" horiz-adv-x="1191" d="M51 51v361q0 21 16.5 36t39.5 15h128q23 0 39 15t16 36v869q0 21 16.5 36t39.5 15h739q23 0 39.5 -15t16.5 -36v-361q0 -21 -16.5 -36t-39.5 -15h-128q-23 0 -39.5 -15t-16.5 -36v-869q0 -21 -16 -36t-39 -15h-739q-23 0 -39.5 15t-16.5 36z" />
<glyph unicode="T" horiz-adv-x="1093" d="M51 1022v361q0 21 15 36t36 15h889q21 0 36 -15t15 -36v-361q0 -21 -15 -36t-36 -15h-116q-21 0 -36 -15t-15 -36v-868q0 -21 -14.5 -36t-35.5 -15h-454q-21 0 -36 15t-15 36v868q0 21 -15 36t-36 15h-116q-21 0 -36 15t-15 36z" />
<glyph unicode="U" horiz-adv-x="1294" d="M102 910v473q0 21 15 36t36 15h357q21 0 36 -15t15 -36v-463q0 -108 86 -108t86 108v463q0 21 15 36t36 15h356q21 0 36 -15t15 -36v-473q0 -125 -42.5 -228.5t-116.5 -172t-173 -106t-212 -37.5q-152 0 -274.5 63.5t-196.5 189t-74 291.5zM237 52v175q0 21 14.5 35.5 t35.5 14.5h719q21 0 36 -14.5t15 -35.5v-175q0 -21 -15 -36t-36 -15h-719q-21 0 -35.5 15t-14.5 36z" />
<glyph unicode="V" horiz-adv-x="1200" d="M62 920q26 43 94 43h889q69 0 94 -43q11 -18 11 -40q0 -29 -20 -64l-447 -797q-34 -60 -82.5 -60t-82.5 60l-448 797q-19 35 -19 64q0 22 11 40zM173 1197v186q0 21 15 36t36 15h753q21 0 35.5 -15t14.5 -36v-186q0 -21 -14.5 -36t-35.5 -15h-753q-21 0 -36 15t-15 36z " />
<glyph unicode="W" horiz-adv-x="1974" d="M42 920q28 43 103 43h507q-10 -11 -12 -13q-21 -33 -21 -70q0 -44 30 -93l271 -441l-201 -327q-37 -61 -89.5 -61t-89.5 61l-489 797q-21 35 -21 64q0 22 12 40zM315 1197v186q0 21 16 36t39 15h1165q23 0 39 -15t16 -36v-186q0 -21 -16 -36t-39 -15h-1165q-23 0 -39 15 t-16 36zM736 920q28 43 104 43h969q76 0 103 -43q11 -18 11 -39q0 -29 -21 -65l-488 -797q-37 -61 -89.5 -61t-89.5 61l-489 797q-21 35 -21 64q-1 22 11 40z" />
<glyph unicode="X" horiz-adv-x="1536" d="M51 368.5q0 20.5 15 35.5l313 312l-313 313q-15 15 -15 35.5t15 35.5l318 319q15 15 36 15t36 -15l312 -313l313 313q15 15 35.5 15t35.5 -15l319 -319q15 -15 15 -35.5t-15 -35.5l-313 -313l313 -312q15 -15 15 -35.5t-15 -35.5l-319 -319q-15 -14 -35.5 -14t-35.5 14 l-313 313l-312 -313q-15 -14 -36 -14t-36 14l-318 319q-15 15 -15 35.5z" />
<glyph unicode="Y" horiz-adv-x="1282" d="M31 1136q0 21 14 35l248 248q14 14 35 14t35 -14l233 -233q22 -22 45 -22l45 22l233 233q14 14 35 14t35 -14l248 -248q14 -14 14 -34q0 -21 -15 -36l-308 -308q-14 -14 -24.5 -39.5t-10.5 -45.5v-659q0 -20 -15 -34.5t-35 -14.5h-405q-20 0 -34.5 14.5t-14.5 34.5v659 q0 20 -10.5 45.5t-24.5 39.5l-309 308q-14 14 -14 35z" />
<glyph unicode="Z" horiz-adv-x="1286" d="M24 13q8 -13 29 -13h1028q21 0 36 15t15 36v361q0 21 -15 36t-36 15h-286q-21 0 -29 13t2 32l461 881q6 11 6 19q0 7 -4 13q-8 13 -29 13h-921q-21 0 -35.5 -15t-14.5 -36v-362q0 -21 15 -35.5t36 -14.5h177q21 0 29.5 -13t-1.5 -32l-461 -881q-6 -11 -6 -19q0 -7 4 -13z " />
<glyph unicode="[" horiz-adv-x="741" d="M102 56v1322q0 23 16.5 39t39.5 16h425q23 0 39.5 -16t16.5 -39v-186q0 -23 -16.5 -39.5t-39.5 -16.5h-136q-22 0 -34.5 -11t-12.5 -28v-760q0 -40 47 -40h136q23 0 39.5 -16t16.5 -39v-186q0 -23 -16.5 -39.5t-39.5 -16.5h-425q-23 0 -39.5 16.5t-16.5 39.5z" />
<glyph unicode="]" horiz-adv-x="741" d="M102 56v186q0 23 16.5 39t39.5 16h137q46 0 46 40v760q0 17 -12 28t-34 11h-137q-23 0 -39.5 16.5t-16.5 39.5v186q0 23 16.5 39t39.5 16h425q23 0 39.5 -16t16.5 -39v-1322q0 -23 -16.5 -39.5t-39.5 -16.5h-425q-23 0 -39.5 16.5t-16.5 39.5z" />
<glyph unicode="_" horiz-adv-x="1026" d="M102 51v215q0 21 15 36t36 15h719q21 0 36 -15t15 -36v-215q0 -21 -15 -36t-36 -15h-719q-21 0 -36 15t-15 36z" />
<glyph unicode="a" horiz-adv-x="1200" d="M62 514q-11 18 -11 39q0 29 19 64l448 798q34 61 82.5 61t82.5 -61l447 -798q20 -35 20 -64q0 -21 -11 -39q-25 -42 -94 -43h-889q-68 1 -94 43zM173 50v187q0 21 15 35.5t36 14.5h753q21 0 35.5 -14.5t14.5 -35.5v-187q0 -21 -14.5 -35.5t-35.5 -14.5h-753 q-21 0 -36 14.5t-15 35.5z" />
<glyph unicode="b" d="M102 51v1332q0 21 15 35.5t36 14.5h481q21 0 36 -14.5t15 -35.5v-338q106 0 203 -41t167 -111t111 -167t41 -203q0 -142 -69.5 -262.5t-190 -190.5t-262.5 -70h-51h-481q-21 0 -36 15t-15 36zM521 521q0 -53 38 -91t91 -38t91 38t38 91t-38 91t-91 38t-91 -38t-38 -91z " />
<glyph unicode="c" horiz-adv-x="1464" d="M51 717q0 154 60 294t161.5 241.5t242 161.5t294.5 60q67 0 130 -10t112.5 -27.5t95 -39.5t79.5 -46.5t63 -49.5t48.5 -47t33 -39.5t19.5 -27.5l7 -10q15 -24 15 -38q0 -15 -18 -30l-358 -285q-17 -15 -39 -14t-35 22l-6 9t-19 21t-31 26t-42.5 20.5t-54.5 9.5 q-83 0 -142 -59t-59 -142t59 -142t142 -59q28 0 54 9t43.5 21t30.5 24.5t19 21.5l6 9q12 19 34.5 21t39.5 -12l358 -286q18 -15 18 -30q0 -14 -15 -38q-4 -6 -11 -17t-33 -41.5t-56.5 -58.5t-81.5 -62.5t-107 -59t-135 -41.5t-164 -17q-154 0 -294.5 60t-242 161.5 t-161.5 242t-60 294.5z" />
<glyph unicode="d" d="M51 523q0 142 70 262.5t190.5 190t262.5 69.5v338q0 21 15 35.5t36 14.5h480q21 0 36 -14.5t15 -35.5v-1332q0 -21 -15 -36t-36 -15h-480h-51q-142 0 -262.5 70t-190.5 190.5t-70 262.5zM480 521q0 -53 37.5 -91t90.5 -38t91 38t38 91t-38 91t-91 38t-90.5 -38t-37.5 -91 z" />
<glyph unicode="e" horiz-adv-x="1087" d="M102 51v1332q0 21 15 36t36 15h781q21 0 35.5 -15t14.5 -36v-455q0 -21 -14.5 -35.5t-35.5 -14.5h-225q-21 0 -35.5 -15t-14.5 -36v-220q0 -21 14.5 -36t35.5 -15h225q21 0 35.5 -15t14.5 -36v-454q0 -21 -14.5 -36t-35.5 -15h-781q-21 0 -36 15t-15 36z" />
<glyph unicode="f" horiz-adv-x="980" d="M102 49v1335q0 21 15 36t36 15h674q21 0 36 -15t15 -36v-362q0 -21 -15 -36t-36 -15h-116q-21 0 -36 -15t-15 -36v-78q0 -21 15 -36t36 -15h116q21 0 36 -15t15 -36v-257q0 -21 -15 -36t-36 -15h-116q-21 0 -36 -15t-15 -36v-332q0 -21 -15 -36t-36 -15h-456 q-21 0 -36 15t-15 36z" />
<glyph unicode="g" horiz-adv-x="1429" d="M51 813q0 134 52.5 256.5t141 211t211 141t256.5 52.5q74 0 142.5 -14.5t118.5 -37t93.5 -50t71.5 -55.5t48.5 -50.5t29.5 -36.5l9 -15q12 -18 12 -32q0 -16 -14 -27l-313 -249q-14 -13 -33.5 -12t-30.5 19q-2 3 -5.5 8t-16 18t-27 23t-37.5 18t-48 8q-73 0 -124 -51.5 t-51 -124.5t51 -124t124 -51q39 0 72 19t46.5 35.5t13.5 19.5q9 15 20.5 19t47.5 4h365q20 0 35 -15t15 -35v-675q0 -21 -15 -36t-35 -15h-389q-20 0 -35 15t-15 36v163q-60 -20 -126 -20q-134 0 -256.5 52t-211 140.5t-141 211t-52.5 256.5z" />
<glyph unicode="h" horiz-adv-x="1413" d="M102 51v1333q0 21 15 36t36 15h335q21 0 36 -15t15 -36v-223q0 -21 14.5 -36t35.5 -15h236q21 0 35.5 15t14.5 36v223q0 21 15 36t36 15h335q21 0 36 -15t15 -36v-1333q0 -21 -15 -36t-36 -15h-335q-21 0 -36 15t-15 36v223q0 21 -14.5 36t-35.5 15h-236q-21 0 -35.5 -15 t-14.5 -36v-223q0 -21 -15 -36t-36 -15h-335q-21 0 -36 15t-15 36z" />
<glyph unicode="i" horiz-adv-x="856" d="M102 1147q0 -135 95.5 -230.5t230.5 -95.5t230 95.5t95 230.5t-95 230t-230 95t-230.5 -95t-95.5 -230zM144 50v596q0 21 14.5 35.5t35.5 14.5h451q21 0 36 -14.5t15 -35.5v-596q0 -21 -15 -35.5t-36 -14.5h-451q-21 0 -35.5 14.5t-14.5 35.5z" />
<glyph unicode="j" horiz-adv-x="772" d="M0 40q0 17 12.5 29.5t29.5 12.5q69 0 117.5 48.5t48.5 117.5v1144q0 17 12.5 29.5t29.5 12.5h377q17 0 29 -12.5t13 -29.5v-1144q0 -306 -160.5 -466.5t-466.5 -160.5q-18 0 -30 12.5t-12 30.5v376z" />
<glyph unicode="k" horiz-adv-x="1359" d="M102 51v1332q0 21 15 36t36 15h434q21 0 36 -15t15 -36v-340l192 192q16 17 39 17t40 -17l267 -268q16 -17 16 -39.5t-16 -38.5l-241 -241l388 -388q16 -16 16 -38.5t-16 -38.5l-282 -281q-16 -17 -38.5 -17t-38.5 17l-326 325v-176q0 -21 -15 -36t-36 -15h-434 q-21 0 -36 15t-15 36z" />
<glyph unicode="l" horiz-adv-x="927" d="M102 51q0 -21 15 -36t36 -15h673q21 0 35.5 15t14.5 36v361q0 21 -14.5 36t-35.5 15h-117q-21 0 -35.5 15t-14.5 36v869q0 21 -15 36t-36 15h-455q-21 0 -36 -15t-15 -36v-1332z" />
<glyph unicode="m" horiz-adv-x="1554" d="M102 52v1331q0 21 15 36t36 15h394q47 0 84 -39l92 -99q25 -27 54 -27t55 27l92 99q37 39 84 39h394q21 0 36 -15t15 -36v-1331q0 -21 -15 -36t-36 -15h-395q-21 0 -35.5 15t-14.5 36v339q0 24 -13.5 40t-43.5 16h-245q-30 0 -43.5 -16t-13.5 -40v-339q0 -21 -14.5 -36 t-35.5 -15h-395q-21 0 -36 15t-15 36z" />
<glyph unicode="n" horiz-adv-x="1277" d="M102 52v1331q0 21 15 36t36 15h314q54 0 85 -38l152 -185q14 -17 34.5 -12.5t20.5 25.5v159q0 21 15 36t36 15h314q21 0 36 -15t15 -36v-1331q0 -21 -15 -36t-36 -15h-313q-54 0 -85 38l-153 185q-13 17 -34 12.5t-21 -25.5v-159q0 -21 -15 -36t-36 -15h-314 q-21 0 -36 15t-15 36z" />
<glyph unicode="o" horiz-adv-x="1206" d="M51 923q0 150 74 277t201 201t277 74t277 -74t201 -201t74 -277t-74 -277t-201 -201t-277 -74t-277 74t-201 201t-74 277zM187 53v177q0 21 15.5 36t36.5 15h729q21 0 36 -15t15 -36v-177q0 -21 -15 -36.5t-36 -15.5h-729q-21 0 -36.5 15.5t-15.5 36.5zM474 923 q0 -53 38 -91t91 -38t91 38t38 91t-38 90.5t-91 37.5t-91 -37.5t-38 -90.5z" />
<glyph unicode="p" d="M102 51v1332q0 21 15 35.5t36 14.5h481h51q106 0 203 -41t167 -111t111 -167t41 -203q0 -142 -69.5 -262.5t-190 -190.5t-262.5 -70v-337q0 -21 -15 -36t-36 -15h-481q-21 0 -36 15t-15 36zM521 913q0 -53 38 -91t91 -38t91 38t38 91t-38 91t-91 38t-91 -38t-38 -91z" />
<glyph unicode="q" horiz-adv-x="1552" d="M51 717q0 146 57 278.5t153 228.5t228.5 153t278.5 57t278.5 -57t228.5 -153t153 -228.5t57 -278.5q0 -165 -72 -312l-386 385q-24 86 -96 141.5t-163 55.5q-112 0 -191 -79t-79 -191q0 -93 57.5 -165.5t145.5 -95.5l382 -382q-150 -74 -315 -74q-146 0 -278.5 57 t-228.5 153t-153 228.5t-57 278.5zM717 572q0 -26 19 -45l513 -513q20 -20 44 -20h1q25 1 45 20l134 133q19 19 19 45t-19 45l-513 513q-20 19 -45 19t-45 -19l-134 -133q-19 -19 -19 -45z" />
<glyph unicode="r" horiz-adv-x="1304" d="M102 52v1331q0 21 15 36t36 15h531q142 0 262 -70t190 -190.5t70 -262.5q0 -128 -58.5 -239t-158.5 -184l249 -248q15 -15 15 -36t-15 -36l-245 -246q-15 -14 -36 -14t-36 14l-296 298v-168q0 -21 -15 -36t-36 -15h-421q-21 0 -36 15t-15 36zM513 911q0 -52 37 -89 t90 -37t90 37t37 89q0 53 -37.5 90t-89.5 37t-89.5 -37t-37.5 -90z" />
<glyph unicode="s" horiz-adv-x="1191" d="M51 51v361q0 21 16.5 36t39.5 15h128q23 0 39 15t16 36v869q0 21 16.5 36t39.5 15h739q23 0 39.5 -15t16.5 -36v-361q0 -21 -16.5 -36t-39.5 -15h-128q-23 0 -39.5 -15t-16.5 -36v-869q0 -21 -16 -36t-39 -15h-739q-23 0 -39.5 15t-16.5 36z" />
<glyph unicode="t" horiz-adv-x="1093" d="M51 1022v361q0 21 15 36t36 15h889q21 0 36 -15t15 -36v-361q0 -21 -15 -36t-36 -15h-116q-21 0 -36 -15t-15 -36v-868q0 -21 -14.5 -36t-35.5 -15h-454q-21 0 -36 15t-15 36v868q0 21 -15 36t-36 15h-116q-21 0 -36 15t-15 36z" />
<glyph unicode="u" horiz-adv-x="1294" d="M102 910v473q0 21 15 36t36 15h357q21 0 36 -15t15 -36v-463q0 -108 86 -108t86 108v463q0 21 15 36t36 15h356q21 0 36 -15t15 -36v-473q0 -125 -42.5 -228.5t-116.5 -172t-173 -106t-212 -37.5q-152 0 -274.5 63.5t-196.5 189t-74 291.5zM237 52v175q0 21 14.5 35.5 t35.5 14.5h719q21 0 36 -14.5t15 -35.5v-175q0 -21 -15 -36t-36 -15h-719q-21 0 -35.5 15t-14.5 36z" />
<glyph unicode="v" horiz-adv-x="1200" d="M62 920q26 43 94 43h889q69 0 94 -43q11 -18 11 -40q0 -29 -20 -64l-447 -797q-34 -60 -82.5 -60t-82.5 60l-448 797q-19 35 -19 64q0 22 11 40zM173 1197v186q0 21 15 36t36 15h753q21 0 35.5 -15t14.5 -36v-186q0 -21 -14.5 -36t-35.5 -15h-753q-21 0 -36 15t-15 36z " />
<glyph unicode="w" horiz-adv-x="1974" d="M42 920q28 43 103 43h507q-10 -11 -12 -13q-21 -33 -21 -70q0 -44 30 -93l271 -441l-201 -327q-37 -61 -89.5 -61t-89.5 61l-489 797q-21 35 -21 64q0 22 12 40zM315 1197v186q0 21 16 36t39 15h1165q23 0 39 -15t16 -36v-186q0 -21 -16 -36t-39 -15h-1165q-23 0 -39 15 t-16 36zM736 920q28 43 104 43h969q76 0 103 -43q11 -18 11 -39q0 -29 -21 -65l-488 -797q-37 -61 -89.5 -61t-89.5 61l-489 797q-21 35 -21 64q-1 22 11 40z" />
<glyph unicode="x" horiz-adv-x="1536" d="M51 368.5q0 20.5 15 35.5l313 312l-313 313q-15 15 -15 35.5t15 35.5l318 319q15 15 36 15t36 -15l312 -313l313 313q15 15 35.5 15t35.5 -15l319 -319q15 -15 15 -35.5t-15 -35.5l-313 -313l313 -312q15 -15 15 -35.5t-15 -35.5l-319 -319q-15 -14 -35.5 -14t-35.5 14 l-313 313l-312 -313q-15 -14 -36 -14t-36 14l-318 319q-15 15 -15 35.5z" />
<glyph unicode="y" horiz-adv-x="1302" d="M31 1136q0 21 14 35l248 248q14 14 35 14t35 -14l233 -233q22 -22 45 -22l45 22l233 233q14 14 35 14t35 -14l248 -248q14 -14 14 -34q0 -21 -15 -36l-308 -308q-14 -14 -24.5 -39.5t-10.5 -45.5v-659q0 -20 -15 -34.5t-35 -14.5h-405q-20 0 -34.5 14.5t-14.5 34.5v659 q0 20 -10.5 45.5t-24.5 39.5l-309 308q-14 14 -14 35z" />
<glyph unicode="z" horiz-adv-x="1286" d="M24 13q8 -13 29 -13h1028q21 0 36 15t15 36v361q0 21 -15 36t-36 15h-286q-21 0 -29 13t2 32l461 881q6 11 6 19q0 7 -4 13q-8 13 -29 13h-921q-21 0 -35.5 -15t-14.5 -36v-362q0 -21 15 -35.5t36 -14.5h177q21 0 29.5 -13t-1.5 -32l-461 -881q-6 -11 -6 -19q0 -7 4 -13z " />
<glyph unicode="{" horiz-adv-x="741" d="M102 56v1322q0 23 16.5 39t39.5 16h425q23 0 39.5 -16t16.5 -39v-186q0 -23 -16.5 -39.5t-39.5 -16.5h-136q-22 0 -34.5 -11t-12.5 -28v-760q0 -40 47 -40h136q23 0 39.5 -16t16.5 -39v-186q0 -23 -16.5 -39.5t-39.5 -16.5h-425q-23 0 -39.5 16.5t-16.5 39.5z" />
<glyph unicode="|" horiz-adv-x="667" d="M205 -154v1741q0 21 15 36t36 15h155q21 0 36 -15t15 -36v-1741q0 -22 -15 -36.5t-36 -14.5h-155q-21 0 -36 14.5t-15 36.5z" />
<glyph unicode="}" horiz-adv-x="741" d="M102 56v186q0 23 16.5 39t39.5 16h137q46 0 46 40v760q0 17 -12 28t-34 11h-137q-23 0 -39.5 16.5t-16.5 39.5v186q0 23 16.5 39t39.5 16h425q23 0 39.5 -16t16.5 -39v-1322q0 -23 -16.5 -39.5t-39.5 -16.5h-425q-23 0 -39.5 16.5t-16.5 39.5z" />
<glyph unicode="&#xad;" horiz-adv-x="944" d="M102 558v215q0 21 15 36t36 15h637q21 0 36 -15t15 -36v-215q0 -21 -15 -36t-36 -15h-637q-21 0 -36 15t-15 36z" />
<glyph unicode="&#x2000;" horiz-adv-x="819" />
<glyph unicode="&#x2001;" horiz-adv-x="1638" />
<glyph unicode="&#x2002;" horiz-adv-x="819" />
<glyph unicode="&#x2003;" horiz-adv-x="1638" />
<glyph unicode="&#x2004;" horiz-adv-x="546" />
<glyph unicode="&#x2005;" horiz-adv-x="409" />
<glyph unicode="&#x2006;" horiz-adv-x="273" />
<glyph unicode="&#x2007;" horiz-adv-x="273" />
<glyph unicode="&#x2008;" horiz-adv-x="204" />
<glyph unicode="&#x2009;" horiz-adv-x="327" />
<glyph unicode="&#x200a;" horiz-adv-x="91" />
<glyph unicode="&#x2010;" horiz-adv-x="944" d="M102 558v215q0 21 15 36t36 15h637q21 0 36 -15t15 -36v-215q0 -21 -15 -36t-36 -15h-637q-21 0 -36 15t-15 36z" />
<glyph unicode="&#x2011;" horiz-adv-x="944" d="M102 558v215q0 21 15 36t36 15h637q21 0 36 -15t15 -36v-215q0 -21 -15 -36t-36 -15h-637q-21 0 -36 15t-15 36z" />
<glyph unicode="&#x2012;" horiz-adv-x="944" d="M102 558v215q0 21 15 36t36 15h637q21 0 36 -15t15 -36v-215q0 -21 -15 -36t-36 -15h-637q-21 0 -36 15t-15 36z" />
<glyph unicode="&#x2013;" horiz-adv-x="1026" d="M102 558v215q0 21 15 36t36 15h719q21 0 36 -15t15 -36v-215q0 -21 -15 -36t-36 -15h-719q-21 0 -36 15t-15 36z" />
<glyph unicode="&#x2014;" horiz-adv-x="1153" d="M102 555v218q0 21 15.5 36t36.5 15h845q21 0 36.5 -15t15.5 -36v-218q0 -21 -15.5 -36.5t-36.5 -15.5h-845q-21 0 -36.5 15.5t-15.5 36.5z" />
<glyph unicode="&#x2018;" horiz-adv-x="614" d="M56 1125l122 465q13 47 47 47h240q20 0 33.5 -13.5t13.5 -33.5v-514q0 -19 -14 -32.5t-34 -13.5h-352q-32 0 -50 25t-6 70z" />
<glyph unicode="&#x2019;" horiz-adv-x="614" d="M102 1077v513q0 19 14 33t34 14h351q32 0 50.5 -25t6.5 -70l-122 -465q-13 -47 -47 -47h-240q-20 0 -33.5 13.5t-13.5 33.5z" />
<glyph unicode="&#x201c;" horiz-adv-x="1167" d="M56 1125l122 465q13 47 47 47h240q20 0 33.5 -13.5t13.5 -33.5v-514q0 -19 -14 -32.5t-34 -13.5h-352q-32 0 -50 25t-6 70zM609 1125l123 465q13 47 46 47h241q20 0 33 -13.5t13 -33.5v-514q0 -19 -13.5 -32.5t-33.5 -13.5h-352q-32 0 -50.5 25t-6.5 70z" />
<glyph unicode="&#x201d;" horiz-adv-x="1167" d="M102 1077v513q0 19 14 33t34 14h351q32 0 50.5 -25t6.5 -70l-122 -465q-13 -47 -47 -47h-240q-20 0 -33.5 13.5t-13.5 33.5zM656 1077v513q0 20 14 33.5t33 13.5h352q32 0 50.5 -25t6.5 -70l-123 -465q-13 -47 -46 -47h-241q-20 0 -33 13.5t-13 33.5z" />
<glyph unicode="&#x2022;" horiz-adv-x="815" d="M51 704q0 -148 104.5 -252.5t252.5 -104.5t252 104.5t104 252.5t-104 252t-252 104t-252.5 -104t-104.5 -252z" />
<glyph unicode="&#x202f;" horiz-adv-x="327" />
<glyph unicode="&#x2039;" horiz-adv-x="763" d="M51 653q0 13 10 23l398 399q9 9 22.5 9t22.5 -9l199 -200q9 -9 9 -22t-9 -22l-177 -178l176 -176q9 -9 9 -22.5t-9 -22.5l-199 -199q-9 -9 -22.5 -9t-22.5 9l-398 398q-9 9 -9 22z" />
<glyph unicode="&#x203a;" horiz-adv-x="841" d="M51 853q0 13 9 22l200 200q9 9 22 9t22 -9l399 -399q10 -10 9.5 -23t-9.5 -22l-398 -398q-9 -9 -22 -9t-22 9l-200 199q-9 9 -9 22.5t9 22.5l177 176l-178 178q-9 9 -9 22z" />
<glyph unicode="&#x205f;" horiz-adv-x="409" />
<glyph unicode="&#x25fc;" horiz-adv-x="1433" d="M0 0v1434h1434v-1434h-1434z" />
</font>
</defs>
</svg>
