<?xml version="1.0" encoding="utf-8"?>
<!-- Generator: Adobe Illustrator 18.0.0, SVG Export Plug-In . SVG Version: 6.00 Build 0)  -->
<!DOCTYPE svg PUBLIC "-//W3C//DTD SVG 1.1//EN" "http://www.w3.org/Graphics/SVG/1.1/DTD/svg11.dtd">
<svg version="1.1" id="Layer_1" xmlns="http://www.w3.org/2000/svg" xmlns:xlink="http://www.w3.org/1999/xlink" x="0px" y="0px"
	 viewBox="0 0 841.9 595.3" enable-background="new 0 0 841.9 595.3" xml:space="preserve">
<g>
	<g>
		<path fill-rule="evenodd" clip-rule="evenodd" fill="#E15555" d="M441.2,85C391,89.1,335,112.8,300.6,149.4
			c-19.3,20.5-38,49.5-40.5,82.2c-2.6,34.5,9,58.2,25,75.1c22.6,23.8,53.1,34.7,100.1,38.1c17-28.8-0.5-50.4-15.5-72.7
			c-9.3-13.8-17.9-28.6-22.6-45.3c-14.2-50.1,24.7-95.7,73.9-95.4c42.2,0.3,76.3,30.6,76.3,73.9c0,28.8-15.3,52.9-27.4,70.3
			c-10.9,15.7-27.2,31.7-19.1,58.4c57-19,111.5-57.8,127.5-116.8C600.6,135,524.2,78.2,441.2,85z"/>
	</g>
	<g>
		<path fill-rule="evenodd" clip-rule="evenodd" fill="#E15555" d="M482.9,187.5c-4.6-29.1-35.6-54.8-71.5-50.1
			c-34.3,4.6-59.9,36.1-53.6,76.3c3.5,22,20.5,41.4,47.7,44.1c15.5-13.1-3.8-25.7-6-40.5c-2.4-16.6,1.8-31.6,20.2-32.2
			c18.2-0.6,24.2,17,21.5,33.4c-2.6,15.3-21.7,26.9-6,39.3C470.3,253.3,488.8,224.8,482.9,187.5z"/>
	</g>
</g>
<g>
	<path fill="#E15555" d="M230.6,452l-15.1-20.5h-7.6V452h-11.7v-56.9h23.1c4.2,0,7.7,0.2,10.6,0.7c2.8,0.4,5.1,1.3,6.8,2.6
		c1.7,1.3,2.9,3.1,3.7,5.5c0.7,2.4,1.1,5.5,1.1,9.5c0,3.1-0.2,5.8-0.7,7.9c-0.4,2.1-1.2,3.9-2.2,5.2c-1,1.4-2.4,2.4-4.1,3.1
		c-1.7,0.7-3.8,1.3-6.2,1.6L244,452H230.6z M219.4,422c1.8,0,3.4-0.1,4.7-0.2c1.3-0.1,2.3-0.5,3.1-1.1c0.8-0.6,1.4-1.5,1.7-2.6
		c0.3-1.2,0.5-2.8,0.5-4.8c0-2.1-0.2-3.8-0.5-5c-0.4-1.2-0.9-2.1-1.7-2.6c-0.8-0.6-1.8-0.9-3.1-1c-1.3-0.1-2.8-0.2-4.7-0.2h-11.5
		V422H219.4z"/>
	<polygon fill="#E15555" points="262.2,452 262.2,395.1 304.7,395.1 303.9,404.6 273.9,404.6 273.9,417.8 297.2,417.8 297.2,427.3 
		273.9,427.3 273.9,442.4 304.7,442.4 303.9,452 	"/>
	<path fill="#E15555" d="M319,452v-56.9h20.4c4.3,0,8.2,0.3,11.8,0.8c3.5,0.6,6.6,1.8,9,3.8c2.5,1.9,4.4,4.8,5.8,8.5
		c1.3,3.7,2,8.7,2,15c0,6.3-0.6,11.4-1.8,15.2c-1.2,3.8-3,6.7-5.4,8.7c-2.4,2-5.3,3.3-8.7,3.9c-3.4,0.6-7.4,0.9-11.9,0.9H319z
		 M339.4,442.4c3.1,0,5.8-0.2,7.9-0.6c2.2-0.4,3.9-1.2,5.2-2.6c1.3-1.3,2.2-3.3,2.8-5.9c0.6-2.6,0.8-6,0.8-10.3
		c0-4.5-0.4-8-1.3-10.5c-0.9-2.5-2-4.4-3.6-5.5c-1.5-1.2-3.3-1.9-5.4-2.1c-2.1-0.2-4.3-0.4-6.7-0.4h-8.5v37.9H339.4z"/>
	<polygon fill="#333333" points="385.8,452 385.8,395.1 397.4,395.1 397.4,442.4 426,442.4 425.1,452 	"/>
	<rect x="439.6" y="395.1" fill="#333333" width="11.7" height="56.9"/>
	<path fill="#333333" d="M509.3,427.3h-12.9l0.9-9.5h23.3V448c-1.2,0.7-2.7,1.4-4.4,2c-1.7,0.6-3.6,1.1-5.7,1.6
		c-2,0.4-4.2,0.8-6.4,1c-2.2,0.2-4.4,0.4-6.5,0.4c-4.5,0-8.5-0.4-11.9-1.1c-3.5-0.7-6.4-2.1-8.7-4.2c-2.3-2.1-4.1-5.2-5.3-9.1
		c-1.2-3.9-1.8-9-1.8-15.3c0-6.3,0.7-11.3,2-15.2c1.4-3.8,3.3-6.8,5.8-8.9c2.5-2.1,5.5-3.5,9-4.2c3.5-0.7,7.5-1.1,11.8-1.1
		c4.2,0,8,0.3,11.4,1c3.5,0.7,6.5,1.6,9,2.7l-2.9,9.1c-0.8-0.3-1.9-0.6-3.1-1c-1.2-0.4-2.6-0.8-4.1-1.1c-1.5-0.4-3.1-0.6-4.9-0.9
		c-1.7-0.2-3.5-0.3-5.2-0.3c-2.4,0-4.7,0.2-6.7,0.5c-2.1,0.3-3.9,1.1-5.4,2.4c-1.5,1.3-2.7,3.3-3.5,5.9c-0.9,2.6-1.3,6.2-1.3,10.9
		c0,4.3,0.3,7.8,0.9,10.5c0.6,2.7,1.5,4.7,2.9,6.2c1.3,1.4,3.1,2.4,5.3,2.9c2.2,0.5,4.9,0.8,8.2,0.8c1.8,0,3.7-0.2,5.6-0.5
		c1.9-0.3,3.5-0.7,4.7-1.1V427.3z"/>
	<polygon fill="#333333" points="571.9,452 571.9,426.6 548.8,426.6 548.8,452 537.2,452 537.2,395.1 548.8,395.1 548.8,416.9 
		571.9,416.9 571.9,395.1 583.5,395.1 583.5,452 	"/>
	<polygon fill="#333333" points="615.4,452 615.4,404.6 597.9,404.6 598.8,395.1 645.7,395.1 644.8,404.6 627.1,404.6 627.1,452 	
		"/>
	<path fill="#333333" d="M263.8,487.2c-0.6-0.2-1.4-0.5-2.4-0.7c-1-0.3-2.1-0.5-3.4-0.8c-1.2-0.2-2.5-0.4-3.9-0.6
		c-1.4-0.2-2.7-0.2-4-0.2c-3.9,0-6.9,0.6-8.9,1.7c-2,1.1-3,3.2-3,6.2c0,1.4,0.1,2.5,0.2,3.2c0.2,0.7,0.5,1.4,1.1,1.8
		c0.6,0.5,1.4,0.8,2.5,1.1c1.1,0.3,2.6,0.6,4.6,1c2.5,0.5,4.9,1,7.4,1.4c2.5,0.4,4.8,1,6.8,1.9c2,0.8,3.7,1.9,5,3.4
		c1.3,1.5,2,3.5,2,6c0,2.6-0.4,4.6-1.3,6.2c-0.8,1.6-2,2.9-3.5,3.8c-1.5,0.9-3.3,1.6-5.4,1.9c-2.1,0.3-4.4,0.5-6.9,0.5
		c-1.5,0-3.2-0.1-4.9-0.2c-1.7-0.2-3.4-0.4-5.1-0.7c-1.6-0.3-3.2-0.7-4.7-1c-1.5-0.4-2.7-0.8-3.6-1.3c0.3-0.7,0.7-1.3,1-1.9
		c0.3-0.6,0.7-1.2,1.1-1.8c0.7,0.3,1.5,0.6,2.6,0.9c1.1,0.4,2.3,0.7,3.8,1c1.5,0.3,3.1,0.6,4.8,0.8c1.8,0.2,3.6,0.3,5.6,0.3
		c1.8,0,3.5,0,5-0.1c1.5-0.1,2.7-0.4,3.8-0.9c1-0.5,1.8-1.4,2.4-2.5c0.6-1.1,0.8-2.7,0.8-4.8c0-1.3-0.2-2.4-0.5-3.1
		c-0.3-0.8-0.8-1.4-1.5-1.8c-0.7-0.5-1.7-0.8-2.8-1.1c-1.2-0.3-2.7-0.6-4.4-0.9c-3.7-0.7-6.9-1.3-9.5-1.9c-2.6-0.5-4.7-1.3-6.3-2.1
		c-1.6-0.9-2.8-2-3.5-3.4c-0.7-1.4-1.1-3.4-1.1-5.8c0-1.9,0.4-3.6,1.2-5.1c0.8-1.5,1.9-2.7,3.4-3.6c1.4-1,3.1-1.7,5-2.1
		c1.9-0.5,3.9-0.7,6-0.7c1.5,0,3.1,0.1,4.7,0.2c1.6,0.1,3.2,0.3,4.7,0.5c1.5,0.2,2.9,0.5,4.2,0.8c1.3,0.3,2.4,0.7,3.3,1.1
		L263.8,487.2z"/>
	<path fill="#333333" d="M278.6,503.1c0-4.8,0.6-8.6,1.7-11.5c1.1-2.9,2.6-5.1,4.6-6.7c1.9-1.6,4.2-2.6,6.7-3.1
		c2.6-0.5,5.3-0.8,8.3-0.8c3,0,5.7,0.3,8.3,0.8c2.6,0.5,4.8,1.5,6.7,3.1c1.9,1.6,3.4,3.8,4.6,6.7c1.1,2.9,1.7,6.7,1.7,11.5
		c0,4.8-0.6,8.6-1.7,11.5c-1.1,2.9-2.6,5.1-4.6,6.7c-1.9,1.6-4.2,2.6-6.7,3.1c-2.6,0.5-5.3,0.8-8.3,0.8c-3,0-5.7-0.3-8.3-0.8
		c-2.6-0.5-4.8-1.5-6.7-3.1c-1.9-1.6-3.4-3.8-4.6-6.7C279.2,511.7,278.6,507.8,278.6,503.1 M299.9,484.8c-2.2,0-4.2,0.1-6.2,0.3
		c-2,0.2-3.7,0.9-5.2,2c-1.5,1.2-2.7,3-3.6,5.5c-0.9,2.5-1.4,6-1.4,10.5c0,3,0.2,5.6,0.6,7.7c0.4,2.1,1,3.8,1.7,5.2
		c0.7,1.3,1.6,2.4,2.6,3.1c1,0.7,2.1,1.3,3.3,1.6c1.2,0.3,2.5,0.5,3.9,0.6c1.4,0.1,2.8,0.1,4.2,0.1c1.4,0,2.8,0,4.2-0.1
		c1.4-0.1,2.7-0.3,3.9-0.6c1.2-0.3,2.3-0.9,3.4-1.6c1-0.8,1.9-1.8,2.6-3.1c0.7-1.3,1.3-3.1,1.7-5.2c0.4-2.1,0.6-4.7,0.6-7.7
		c0-4.5-0.5-8.1-1.4-10.5c-0.9-2.5-2.1-4.3-3.7-5.5c-1.5-1.1-3.3-1.8-5.2-2C304,484.9,302,484.8,299.9,484.8"/>
	<polygon fill="#333333" points="339.2,504.3 339.2,524.4 334.5,524.4 334.5,481.9 364,481.9 363.4,485.7 339.2,485.7 339.2,500.5 
		360.6,500.5 360.6,504.3 	"/>
	<polygon fill="#333333" points="382.8,524.4 382.8,485.7 367.8,485.7 368.4,481.9 403.4,481.9 402.8,485.7 387.6,485.7 
		387.6,524.4 	"/>
	<polygon fill="#333333" points="449.6,524.4 439.8,489.2 430.7,524.4 425.1,524.4 412.8,481.9 417.6,481.9 427.8,520.4 
		428.1,520.4 437.5,481.9 442.1,481.9 452.2,520.4 452.6,520.4 462,481.9 467,481.9 455.2,524.4 	"/>
	<path fill="#333333" d="M507.6,524.4l-5.4-13.3H483l-5.3,13.3h-4.9l17-42.4h5.7l17,42.4H507.6z M495.4,493.9l-2.5-8h-0.4l-2.5,8
		l-5.6,13.8H501L495.4,493.9z"/>
	<path fill="#333333" d="M553.6,524.4l-11.2-15.3h-13.6v15.3H524v-42.4h17.2c3.1,0,5.7,0.2,7.9,0.5c2.1,0.3,3.8,1,5.1,1.9
		c1.3,1,2.2,2.3,2.7,4.1c0.5,1.8,0.8,4.1,0.8,7c0,2.3-0.2,4.3-0.5,5.9c-0.3,1.6-0.9,2.9-1.7,3.9c-0.8,1-1.8,1.8-3,2.3
		c-1.3,0.6-2.8,0.9-4.7,1.2l11.8,15.5H553.6z M541.3,505.3c2.1,0,3.8-0.1,5.3-0.2c1.5-0.2,2.6-0.6,3.5-1.2c0.9-0.6,1.6-1.6,2-2.9
		c0.4-1.3,0.6-3.1,0.6-5.5c0-2.4-0.2-4.3-0.6-5.6c-0.4-1.3-1.1-2.3-2-2.9c-0.9-0.6-2.1-1-3.5-1.1c-1.5-0.1-3.2-0.2-5.3-0.2h-12.6
		v19.6H541.3z"/>
	<polygon fill="#333333" points="572.5,524.4 572.5,481.9 604.2,481.9 603.6,485.7 577.3,485.7 577.3,500.5 598.6,500.5 
		598.6,504.3 577.3,504.3 577.3,520.5 604.2,520.5 603.6,524.4 	"/>
</g>
</svg>
